<?xml version="1.0" encoding="UTF-8" standalone="no"?>
<!-- Created with Inkscape (http://www.inkscape.org/) -->

<svg
   width="1080"
   height="1080"
   viewBox="0 0 285.74999 285.75001"
   version="1.1"
   id="svg5"
   inkscape:version="1.1.2 (0a00cf5339, 2022-02-04)"
   sodipodi:docname="apple_white.svg"
   xmlns:inkscape="http://www.inkscape.org/namespaces/inkscape"
   xmlns:sodipodi="http://sodipodi.sourceforge.net/DTD/sodipodi-0.dtd"
   xmlns="http://www.w3.org/2000/svg"
   xmlns:svg="http://www.w3.org/2000/svg">
  <sodipodi:namedview
     id="namedview7"
     pagecolor="#505050"
     bordercolor="#eeeeee"
     borderopacity="1"
     inkscape:pageshadow="0"
     inkscape:pageopacity="0"
     inkscape:pagecheckerboard="0"
     inkscape:document-units="mm"
     showgrid="false"
     units="px"
     width="1028px"
     inkscape:zoom="0.77771465"
     inkscape:cx="138.86841"
     inkscape:cy="561.25984"
     inkscape:window-width="2506"
     inkscape:window-height="1376"
     inkscape:window-x="2614"
     inkscape:window-y="27"
     inkscape:window-maximized="1"
     inkscape:current-layer="layer1" />
  <defs
     id="defs2" />
  <g
     inkscape:label="Layer 1"
     inkscape:groupmode="layer"
     id="layer1">
    <g
       id="_Group_2"
       transform="matrix(11.261455,0,0,11.261455,7.7378575,7.7349942)"
       style="fill:#ffffff;fill-opacity:1">
	<g
   id="_Group_3"
   style="fill:#ffffff;fill-opacity:1">
		<path
   id="_Path_"
   d="M 18.546,12.763 C 18.57,10.893 19.55,9.166 21.143,8.187 20.134,6.745 18.503,5.864 16.744,5.809 14.893,5.615 13.099,6.916 12.156,6.916 11.195,6.916 9.743,5.828 8.179,5.86 6.122,5.927 4.25,7.068 3.249,8.867 c -2.131,3.69 -0.542,9.114 1.5,12.097 1.022,1.461 2.215,3.092 3.778,3.035 1.529,-0.063 2.1,-0.975 3.945,-0.975 1.828,0 2.364,0.975 3.958,0.938 1.64,-0.027 2.674,-1.467 3.66,-2.942 0.734,-1.041 1.299,-2.191 1.673,-3.408 -1.948,-0.824 -3.215,-2.733 -3.217,-4.849 z"
   style="fill:#ffffff;fill-opacity:1" />

		<path
   id="_Path_2"
   d="M 15.535,3.847 C 16.429,2.773 16.87,1.393 16.763,0 15.397,0.144 14.134,0.797 13.228,1.829 12.333,2.848 11.879,4.18 11.967,5.534 c 1.385,0.014 2.7,-0.608 3.568,-1.687 z"
   style="fill:#ffffff;fill-opacity:1" />

	</g>

</g>
  </g>
</svg>
