<?xml version="1.0" encoding="UTF-8" standalone="no"?>
<!-- Created with Inkscape (http://www.inkscape.org/) -->

<svg
   width="1024"
   height="1024"
   viewBox="0 0 270.93333 270.93333"
   version="1.1"
   id="svg12"
   inkscape:version="1.1.2 (0a00cf5339, 2022-02-04)"
   sodipodi:docname="spotify_white.svg"
   xmlns:inkscape="http://www.inkscape.org/namespaces/inkscape"
   xmlns:sodipodi="http://sodipodi.sourceforge.net/DTD/sodipodi-0.dtd"
   xmlns="http://www.w3.org/2000/svg"
   xmlns:svg="http://www.w3.org/2000/svg">
  <sodipodi:namedview
     id="namedview14"
     pagecolor="#505050"
     bordercolor="#eeeeee"
     borderopacity="1"
     inkscape:pageshadow="0"
     inkscape:pageopacity="0"
     inkscape:pagecheckerboard="0"
     inkscape:document-units="mm"
     showgrid="false"
     width="1024mm"
     units="px"
     inkscape:zoom="0.77771465"
     inkscape:cx="138.86841"
     inkscape:cy="561.25984"
     inkscape:window-width="2506"
     inkscape:window-height="1376"
     inkscape:window-x="2614"
     inkscape:window-y="27"
     inkscape:window-maximized="1"
     inkscape:current-layer="layer1" />
  <defs
     id="defs9" />
  <g
     inkscape:label="Layer 1"
     inkscape:groupmode="layer"
     id="layer1">
    <g
       id="g22"
       transform="matrix(9.748499,0,0,9.748499,18.484678,18.484678)"
       style="fill:#ffffff;fill-opacity:1">
	<g
   id="g20"
   style="fill:#ffffff;fill-opacity:1">
		<g
   id="g18"
   style="fill:#ffffff;fill-opacity:1">
			<path
   d="M 12,0 C 5.373,0 0,5.373 0,12 0,18.628 5.373,24 12,24 18.628,24 24,18.628 24,12 24,5.373 18.628,0 12,0 Z m 5.503,17.308 c -0.216,0.354 -0.676,0.464 -1.028,0.249 C 13.657,15.835 10.11,15.446 5.933,16.4 5.53,16.492 5.129,16.24 5.037,15.838 4.945,15.436 5.196,15.034 5.6,14.943 c 4.571,-1.045 8.492,-0.595 11.655,1.338 0.353,0.214 0.464,0.675 0.248,1.027 z m 1.469,-3.267 c -0.271,0.44 -0.847,0.578 -1.287,0.308 C 14.46,12.367 9.543,11.792 5.727,12.951 5.233,13.1 4.71,12.821 4.56,12.327 4.411,11.832 4.69,11.311 5.184,11.16 c 4.358,-1.323 9.776,-0.682 13.48,1.594 0.44,0.271 0.578,0.847 0.308,1.287 z m 0.126,-3.403 C 15.23,8.341 8.85,8.13 5.157,9.251 4.564,9.431 3.937,9.096 3.757,8.503 3.577,7.91 3.912,7.283 4.505,7.103 8.744,5.816 15.79,6.065 20.243,8.708 c 0.533,0.317 0.708,1.005 0.392,1.538 -0.315,0.533 -1.005,0.709 -1.537,0.392 z"
   id="path16"
   style="fill:#ffffff;fill-opacity:1" />

		</g>

	</g>

</g>
  </g>
</svg>
